<svg width="1119" height="759" viewBox="0 0 1119 759" fill="none" xmlns="http://www.w3.org/2000/svg">
<g opacity="0.7">
<g opacity="0.4">
<path d="M797.804 659H34.1961C31.8749 659 30 657.66 30 656C30 654.34 31.8749 653 34.1961 653H797.804C800.125 653 802 654.34 802 656C802 657.66 800.125 659 797.804 659Z" fill="#26A0DD"/>
<path d="M161.982 198.773H151.881V597.349H161.982V198.773Z" fill="#26A0DD"/>
<path d="M214.154 198.773H204.052V597.349H214.154V198.773Z" fill="#26A0DD"/>
<path d="M159.292 206.546L155.992 209.846L206.716 260.571L210.017 257.271L159.292 206.546Z" fill="#26A0DD"/>
<path d="M156.027 257.238L159.327 260.538L210.051 209.814L206.751 206.513L156.027 257.238Z" fill="#26A0DD"/>
<path d="M159.257 254.202L155.957 257.502L206.682 308.226L209.982 304.926L159.257 254.202Z" fill="#26A0DD"/>
<path d="M155.984 304.954L159.284 308.254L210.008 257.53L206.708 254.229L155.984 304.954Z" fill="#26A0DD"/>
<path d="M159.267 301.894L155.967 305.194L206.692 355.918L209.992 352.618L159.267 301.894Z" fill="#26A0DD"/>
<path d="M155.994 352.624L159.295 355.924L210.019 305.199L206.719 301.899L155.994 352.624Z" fill="#26A0DD"/>
<path d="M159.277 349.586L155.977 352.886L206.701 403.61L210.002 400.31L159.277 349.586Z" fill="#26A0DD"/>
<path d="M156.005 400.294L159.305 403.594L210.03 352.869L206.73 349.569L156.005 400.294Z" fill="#26A0DD"/>
<path d="M159.287 397.278L155.987 400.578L206.711 451.303L210.012 448.002L159.287 397.278Z" fill="#26A0DD"/>
<path d="M156.016 447.963L159.316 451.264L210.041 400.539L206.74 397.239L156.016 447.963Z" fill="#26A0DD"/>
<path d="M159.3 444.957L156 448.258L206.725 498.982L210.025 495.682L159.3 444.957Z" fill="#26A0DD"/>
<path d="M156.039 495.637L159.339 498.937L210.064 448.212L206.763 444.912L156.039 495.637Z" fill="#26A0DD"/>
<path d="M159.266 492.603L155.966 495.904L206.69 546.628L209.99 543.328L159.266 492.603Z" fill="#26A0DD"/>
<path d="M156.005 543.353L159.305 546.653L210.03 495.928L206.73 492.628L156.005 543.353Z" fill="#26A0DD"/>
<path d="M159.277 540.295L155.976 543.595L206.701 594.319L210.001 591.019L159.277 540.295Z" fill="#26A0DD"/>
<path d="M156.017 591.023L159.317 594.323L210.041 543.599L206.741 540.299L156.017 591.023Z" fill="#26A0DD"/>
<path d="M214.538 198.773H208.911V597.349H214.538V198.773Z" fill="#26A0DD"/>
<path d="M243.501 198.773H237.874V597.349H243.501V198.773Z" fill="#26A0DD"/>
<path d="M241.199 257.211L239.345 260.535L211.213 209.834L213.067 206.51L241.199 257.211Z" fill="#26A0DD"/>
<path d="M211.213 257.211L213.067 260.535L241.199 209.834L239.345 206.51L211.213 257.211Z" fill="#26A0DD"/>
<path d="M241.199 304.907L239.345 308.231L211.213 257.53L213.067 254.206L241.199 304.907Z" fill="#26A0DD"/>
<path d="M211.213 304.907L213.067 308.231L241.199 257.53L239.345 254.206L211.213 304.907Z" fill="#26A0DD"/>
<path d="M241.199 352.603L239.345 355.928L211.213 305.162L213.067 301.902L241.199 352.603Z" fill="#26A0DD"/>
<path d="M211.213 352.603L213.067 355.928L241.199 305.162L239.345 301.902L211.213 352.603Z" fill="#26A0DD"/>
<path d="M241.199 400.299L239.345 403.56L211.213 352.859L213.067 349.534L241.199 400.299Z" fill="#26A0DD"/>
<path d="M211.213 400.299L213.067 403.56L241.199 352.859L239.345 349.534L211.213 400.299Z" fill="#26A0DD"/>
<path d="M241.199 447.931L239.345 451.256L211.213 400.555L213.067 397.23L241.199 447.931Z" fill="#26A0DD"/>
<path d="M211.213 447.931L213.067 451.256L241.199 400.555L239.345 397.23L211.213 447.931Z" fill="#26A0DD"/>
<path d="M241.199 495.627L239.345 498.952L211.213 448.251L213.067 444.926L241.199 495.627Z" fill="#26A0DD"/>
<path d="M211.213 495.627L213.067 498.952L241.199 448.251L239.345 444.926L211.213 495.627Z" fill="#26A0DD"/>
<path d="M241.199 543.323L239.345 546.648L211.213 495.883L213.067 492.622L241.199 543.323Z" fill="#26A0DD"/>
<path d="M211.213 543.323L213.067 546.648L241.199 495.883L239.345 492.622L211.213 543.323Z" fill="#26A0DD"/>
<path d="M241.199 591.02L239.345 594.28L211.213 543.579L213.067 540.255L241.199 591.02Z" fill="#26A0DD"/>
<path d="M211.213 591.02L213.067 594.28L241.199 543.579L239.345 540.255L211.213 591.02Z" fill="#26A0DD"/>
<path d="M247.912 586.224H141.971V662.052H247.912V586.224Z" fill="#26A0DD"/>
<path d="M247.912 586.224H208.783V662.052H247.912V586.224Z" fill="#26A0DD"/>
<path d="M250.086 199.349H145.295C143.953 199.349 142.802 198.262 142.802 196.855V115.465C142.802 114.122 143.889 112.971 145.295 112.971H250.086C251.429 112.971 252.58 114.058 252.58 115.465V196.919C252.58 198.262 251.429 199.349 250.086 199.349Z" fill="#26A0DD"/>
<path d="M250.853 199.349H202.901C201.942 199.349 201.175 198.581 201.175 197.622V114.634C201.175 113.675 201.942 112.907 202.901 112.907H250.853C251.812 112.907 252.58 113.675 252.58 114.634V197.622C252.58 198.581 251.812 199.349 250.853 199.349Z" fill="#26A0DD"/>
<path d="M241.135 139.633V172.687C241.135 174.158 240.815 175.437 240.368 175.948C240.24 176.14 240.048 176.268 239.856 176.268H213.962C213.259 176.268 212.684 174.669 212.684 172.687V139.633C212.684 137.651 213.259 136.052 213.962 136.052H239.856C240.56 136.052 241.135 137.651 241.135 139.633Z" fill="#26A0DD"/>
<path d="M228.028 176.268H217.223L212.747 166.933V144.172L228.028 176.268Z" fill="#26A0DD"/>
<path d="M240.368 175.948L221.379 136.052H215.369L234.55 176.268H239.92L240.368 175.948Z" fill="#26A0DD"/>
<path d="M216.839 12.5921C216.008 5.62308 210.062 0.188538 202.837 0.188538C195.037 0.188538 188.708 6.51819 188.708 14.3184C188.708 15.0856 188.772 15.9168 188.899 16.684C189.091 17.8988 189.475 19.0496 189.922 20.0726C190.37 21.0316 190.881 21.9907 191.585 22.8218C193.439 25.3153 196.124 27.1055 199.193 27.9367C200.344 28.2564 201.559 28.4482 202.837 28.4482C205.331 28.4482 207.633 27.8088 209.615 26.7219C211.98 25.4432 213.898 23.5251 215.177 21.1595C215.497 20.5201 215.816 19.8808 216.072 19.2414C216.648 17.707 216.967 16.0446 216.967 14.3184C216.967 13.7429 216.903 13.1675 216.839 12.5921ZM202.837 20.8398C201.495 20.8398 200.216 20.3923 199.193 19.689C198.873 19.4332 198.554 19.2414 198.298 18.9217C197.339 17.9627 196.7 16.7479 196.444 15.3413C196.38 14.9577 196.38 14.638 196.38 14.2544C196.38 13.7429 196.444 13.2954 196.572 12.7839C197.211 9.90679 199.832 7.73297 202.901 7.73297C205.459 7.73297 207.697 9.20349 208.783 11.3773C209.231 12.2724 209.423 13.2315 209.423 14.2544C209.423 15.661 208.975 17.0037 208.208 18.0266C206.929 19.7529 205.011 20.8398 202.837 20.8398Z" fill="#26A0DD"/>
<path d="M501.61 53.511L500.651 60.0964L216.072 19.2414L215.177 19.1135L209.615 18.2824L208.144 18.0906C208.911 17.0036 209.359 15.7249 209.359 14.3183C209.359 13.2954 209.103 12.3363 208.72 11.4412L216.903 12.5921L501.61 53.511Z" fill="#26A0DD"/>
<path d="M198.234 18.9857L191.521 22.8857L189.858 23.8448L127.393 60.0325L124.068 54.2782L188.835 16.7479L189.858 16.1725L191.009 15.5331L196.188 12.5281L196.444 12.9757C196.316 13.4232 196.252 13.9347 196.252 14.4462C196.252 14.8298 196.316 15.1495 196.316 15.5331C196.636 16.8118 197.275 18.0266 198.234 18.9857Z" fill="#26A0DD"/>
<path d="M199.193 19.6889V108.56H189.922V15.4052H196.38C196.636 16.8118 197.275 18.0266 198.234 18.9857C198.554 19.2414 198.873 19.4971 199.193 19.6889Z" fill="#26A0DD"/>
<path d="M215.177 15.4052H209.615V108.624H215.177V15.4052Z" fill="#26A0DD"/>
<path d="M66.2078 104.888V114.99L561.966 114.99V104.888L66.2078 104.888Z" fill="#26A0DD"/>
<path d="M116.974 52.734V62.8358L515.55 62.8358V52.734L116.974 52.734Z" fill="#26A0DD"/>
<path d="M124.734 107.58L128.034 110.88L178.759 60.1556L175.458 56.8553L124.734 107.58Z" fill="#26A0DD"/>
<path d="M175.44 110.87L178.74 107.569L128.016 56.8448L124.715 60.1451L175.44 110.87Z" fill="#26A0DD"/>
<path d="M128.48 107.601L125.155 110.862L97.2794 83.0494L92.3563 78.0624L95.6171 74.6738L100.604 79.6608L128.48 107.601Z" fill="#26A0DD"/>
<path d="M172.405 107.568L175.705 110.869L226.429 60.1441L223.129 56.8439L172.405 107.568Z" fill="#26A0DD"/>
<path d="M223.11 110.88L226.41 107.58L175.685 56.8556L172.385 60.1558L223.11 110.88Z" fill="#26A0DD"/>
<path d="M220.12 107.602L223.421 110.902L274.145 60.1778L270.845 56.8776L220.12 107.602Z" fill="#26A0DD"/>
<path d="M270.825 110.846L274.125 107.546L223.4 56.8211L220.1 60.1213L270.825 110.846Z" fill="#26A0DD"/>
<path d="M267.784 107.596L271.084 110.896L321.808 60.1714L318.508 56.8712L267.784 107.596Z" fill="#26A0DD"/>
<path d="M318.49 110.849L321.79 107.548L271.065 56.8239L267.765 60.1241L318.49 110.849Z" fill="#26A0DD"/>
<path d="M315.454 107.584L318.755 110.885L369.479 60.16L366.179 56.8598L315.454 107.584Z" fill="#26A0DD"/>
<path d="M366.159 110.859L369.46 107.559L318.735 56.8347L315.435 60.1349L366.159 110.859Z" fill="#26A0DD"/>
<path d="M363.123 107.574L366.423 110.875L417.148 60.1501L413.848 56.8498L363.123 107.574Z" fill="#26A0DD"/>
<path d="M413.828 110.868L417.128 107.568L366.404 56.8436L363.103 60.1439L413.828 110.868Z" fill="#26A0DD"/>
<path d="M410.849 107.601L414.149 110.902L464.873 60.1772L461.573 56.8769L410.849 107.601Z" fill="#26A0DD"/>
<path d="M461.55 110.843L464.85 107.543L414.125 56.8185L410.825 60.1187L461.55 110.843Z" fill="#26A0DD"/>
<path d="M458.519 107.59L461.82 110.89L512.544 60.1657L509.244 56.8655L458.519 107.59Z" fill="#26A0DD"/>
<path d="M542.081 80.0445L511.264 110.862L507.939 107.601L531.66 83.8167L538.82 76.6559L542.081 80.0445Z" fill="#26A0DD"/>
<path d="M509.22 110.854L512.52 107.554L461.795 56.8292L458.495 60.1295L509.22 110.854Z" fill="#26A0DD"/>
<path d="M116.972 52.7433L121.319 62.8452L70.5542 115.017L66.2065 104.915L116.972 52.7433Z" fill="#26A0DD"/>
<path d="M566.313 104.915L561.965 115.017L534.92 87.2052L531.66 83.8166L511.2 62.8456L515.548 52.7438L538.82 76.6558L542.081 80.0444L566.313 104.915Z" fill="#26A0DD"/>
<path d="M243.565 198.773H151.753V210.154H243.565V198.773Z" fill="#26A0DD"/>
<path d="M463.256 627.896C473.653 626.521 480.967 616.978 479.592 606.581C478.218 596.184 468.675 588.87 458.277 590.245C447.88 591.62 440.566 601.163 441.941 611.56C443.316 621.957 452.859 629.271 463.256 627.896Z" fill="#26A0DD"/>
<path d="M481.566 600.785C490.078 594.658 492.011 582.792 485.884 574.28C479.758 565.769 467.891 563.836 459.38 569.962C450.868 576.089 448.935 587.956 455.062 596.467C461.188 604.979 473.055 606.912 481.566 600.785Z" fill="#26A0DD"/>
<path d="M479.448 584.824C489.863 583.591 497.306 574.148 496.073 563.733C494.84 553.318 485.397 545.875 474.982 547.108C464.567 548.342 457.124 557.784 458.357 568.199C459.591 578.614 469.033 586.057 479.448 584.824Z" fill="#26A0DD"/>
<path d="M507.683 575.291C509.985 585.521 503.528 595.687 493.234 597.989C483.004 600.29 472.838 593.833 470.537 583.539C468.235 573.309 474.693 563.144 484.986 560.842C495.216 558.604 505.382 565.062 507.683 575.291Z" fill="#26A0DD"/>
<path d="M507.364 604.19C509.666 614.42 503.208 624.586 492.914 626.888C482.685 629.189 472.519 622.732 470.217 612.438C467.915 602.208 474.373 592.043 484.667 589.741C494.896 587.503 505.062 593.961 507.364 604.19Z" fill="#26A0DD"/>
<path d="M477.314 656.042C476.547 656.042 475.971 655.467 475.971 654.7V585.585C475.971 584.818 476.547 584.242 477.314 584.242C478.081 584.242 478.657 584.818 478.657 585.585V654.764C478.721 655.467 478.081 656.042 477.314 656.042Z" fill="#1A96C6"/>
<path d="M476.803 619.471C476.291 618.96 476.291 618.064 476.803 617.553L484.219 610.136C484.731 609.625 485.626 609.625 486.137 610.136C486.649 610.648 486.649 611.543 486.137 612.055L478.721 619.471C478.145 620.046 477.314 620.046 476.803 619.471Z" fill="#1A96C6"/>
<path d="M478.145 597.349C478.657 596.838 478.657 595.943 478.145 595.431L470.729 588.015C470.217 587.503 469.322 587.503 468.811 588.015C468.299 588.526 468.299 589.421 468.811 589.933L476.227 597.349C476.739 597.861 477.634 597.861 478.145 597.349Z" fill="#1A96C6"/>
<path d="M81.1036 601.633C83.9168 614.1 75.9887 626.504 63.5212 629.317C51.0538 632.13 38.6502 624.202 35.837 611.735C33.0238 599.267 40.9519 586.864 53.4194 584.051C65.8869 581.237 78.2904 589.102 81.1036 601.633Z" fill="#26A0DD"/>
<path d="M92.9956 572.798C95.8088 585.265 87.8808 597.669 75.4133 600.482C62.9458 603.295 50.5422 595.367 47.7291 582.9C44.9159 570.432 52.8439 558.029 65.3114 555.216C77.8428 552.402 90.1824 560.266 92.9956 572.798Z" fill="#26A0DD"/>
<path d="M107.381 549.845C110.194 562.312 102.266 574.716 89.7988 577.529C77.3313 580.342 64.9278 572.414 62.1146 559.947C59.3014 547.479 67.2295 535.076 79.697 532.263C92.1645 529.449 104.568 537.377 107.381 549.845Z" fill="#26A0DD"/>
<path d="M120.041 570.24C122.854 582.708 114.926 595.112 102.458 597.925C89.9907 600.738 77.5872 592.81 74.774 580.342C71.9608 567.875 79.8888 555.471 92.3563 552.658C104.888 549.845 117.291 557.709 120.041 570.24Z" fill="#26A0DD"/>
<path d="M107.822 620.928C112.055 608.829 105.678 595.59 93.579 591.358C81.4802 587.125 68.2412 593.502 64.0087 605.601C59.7763 617.7 66.1532 630.939 78.2519 635.171C90.3507 639.404 103.59 633.027 107.822 620.928Z" fill="#26A0DD"/>
<path d="M131.741 601.122C134.554 613.589 126.626 625.993 114.158 628.806C101.691 631.619 89.2874 623.691 86.4742 611.223C83.6611 598.756 91.5891 586.352 104.057 583.539C116.524 580.726 128.928 588.59 131.741 601.122Z" fill="#26A0DD"/>
<path d="M84.1725 659.623C83.2774 659.623 82.5102 658.856 82.5102 657.961V573.629C82.5102 572.734 83.2774 571.967 84.1725 571.967C85.0676 571.967 85.8349 572.734 85.8349 573.629V657.961C85.8349 658.856 85.0676 659.623 84.1725 659.623Z" fill="#1A96C6"/>
<path d="M83.5332 614.996C82.8938 614.356 82.8938 613.333 83.5332 612.694L92.5481 603.679C93.1875 603.04 94.2104 603.04 94.8498 603.679C95.4892 604.318 95.4892 605.341 94.8498 605.981L85.8349 614.996C85.1955 615.635 84.1725 615.635 83.5332 614.996Z" fill="#1A96C6"/>
<path d="M85.1316 588.015C85.7709 587.375 85.7709 586.352 85.1316 585.713L76.1166 576.698C75.4772 576.059 74.4543 576.059 73.8149 576.698C73.1755 577.337 73.1755 578.36 73.8149 579L82.8299 588.015C83.4692 588.654 84.4922 588.654 85.1316 588.015Z" fill="#1A96C6"/>
</g>
<g opacity="0.2">
<path d="M418.236 456.696H340.129C340.711 451.171 345.305 446.867 351.005 446.809C351.586 441.342 356.239 437.039 361.88 437.039C365.661 437.039 369.034 438.958 371.011 441.924C372.872 440.412 375.315 439.481 377.932 439.481C380.607 439.481 383.108 440.47 385.027 442.099C387.063 439.714 390.029 438.202 393.402 438.202C398.52 438.202 402.766 441.691 403.987 446.402C405.034 446.053 406.139 445.879 407.302 445.879C413.292 445.821 418.177 450.706 418.236 456.696Z" fill="#26A0DD"/>
<path d="M523.385 522.938H454.526C455.34 517.646 459.877 513.633 465.402 513.633C466.216 513.633 467.088 513.749 467.844 513.924C469.24 509.446 473.428 506.189 478.313 506.189C481.104 506.189 483.663 507.236 485.583 508.98C486.978 508.341 488.549 507.933 490.177 507.933C493.667 507.933 496.749 509.562 498.785 512.121C500.587 508.515 504.31 506.014 508.613 506.014C514.662 506.014 519.605 510.9 519.605 517.006C519.605 517.762 519.547 518.518 519.373 519.216C521.001 520.03 522.397 521.368 523.385 522.938Z" fill="#26A0DD"/>
<path d="M118.896 472.98H68.6474C69.229 468.968 71.9624 465.711 75.5682 464.315C77.2548 460.418 81.1514 457.743 85.6296 457.743C89.0027 457.743 92.0851 459.313 94.0625 461.698C96.0399 459.604 98.8896 458.325 101.972 458.325C106.915 458.325 111.103 461.64 112.499 466.118C115.523 467.339 117.907 469.84 118.896 472.98Z" fill="#26A0DD"/>
<path d="M111.684 684.85H97.959C98.2498 682.059 101.216 679.907 104.822 679.907C108.427 679.907 111.394 682.059 111.684 684.85Z" fill="#26A0DD"/>
<path d="M494.074 712.359H485.176C485.35 710.556 487.269 709.16 489.654 709.16C492.038 709.16 493.899 710.556 494.074 712.359Z" fill="#26A0DD"/>
<path d="M93.9462 728.294H85.048C85.2224 726.491 87.1417 725.096 89.5262 725.096C91.8525 725.038 93.7717 726.491 93.9462 728.294Z" fill="#26A0DD"/>
<path d="M162.398 731.784C162.573 731.9 162.863 731.842 162.98 731.609L165.713 727.015C165.83 726.84 165.771 726.55 165.539 726.433C165.364 726.317 165.073 726.375 164.957 726.608L162.224 731.202C162.107 731.435 162.166 731.668 162.398 731.784Z" fill="#26A0DD"/>
<path d="M162.689 731.784C162.922 731.726 163.038 731.493 162.98 731.26L161.642 726.084C161.584 725.852 161.351 725.735 161.119 725.794C160.886 725.852 160.77 726.084 160.828 726.317L162.166 731.493C162.224 731.726 162.456 731.842 162.689 731.784Z" fill="#26A0DD"/>
<path d="M162.398 731.726C162.515 731.842 162.689 731.9 162.864 731.784L166.062 729.516C166.179 729.399 166.237 729.225 166.12 729.051C166.004 728.934 165.83 728.876 165.655 728.992L162.456 731.26C162.282 731.377 162.282 731.551 162.398 731.726Z" fill="#26A0DD"/>
<path d="M483.663 736.437C483.838 736.553 484.129 736.495 484.245 736.262L486.978 731.668C487.095 731.493 487.037 731.202 486.804 731.086C486.629 730.97 486.339 731.028 486.222 731.26L483.489 735.855C483.431 736.088 483.489 736.32 483.663 736.437Z" fill="#26A0DD"/>
<path d="M483.954 736.437C484.187 736.378 484.303 736.146 484.245 735.913L482.907 730.737C482.849 730.504 482.617 730.388 482.384 730.446C482.151 730.504 482.035 730.737 482.093 730.97L483.431 736.146C483.489 736.378 483.722 736.495 483.954 736.437Z" fill="#26A0DD"/>
<path d="M483.663 736.378C483.78 736.495 483.954 736.553 484.129 736.437L487.327 734.168C487.444 734.052 487.502 733.878 487.386 733.703C487.269 733.587 487.095 733.529 486.92 733.645L483.722 735.913C483.605 736.029 483.547 736.204 483.663 736.378Z" fill="#26A0DD"/>
<path d="M199.154 741.322C199.561 741.554 200.026 741.438 200.259 741.031L205.319 732.424C205.551 732.017 205.435 731.551 205.028 731.319C204.621 731.086 204.156 731.202 203.923 731.609L198.863 740.217C198.689 740.624 198.805 741.089 199.154 741.322Z" fill="#26A0DD"/>
<path d="M199.678 741.322C200.085 741.206 200.375 740.798 200.259 740.333L197.758 730.679C197.642 730.272 197.235 729.981 196.77 730.097C196.363 730.214 196.072 730.621 196.188 731.086L198.689 740.74C198.805 741.206 199.27 741.438 199.678 741.322Z" fill="#26A0DD"/>
<path d="M199.154 741.147C199.329 741.438 199.736 741.496 199.968 741.264L205.959 737.018C206.249 736.844 206.308 736.437 206.075 736.204C205.9 735.913 205.493 735.855 205.261 736.088L199.27 740.333C199.038 740.508 198.98 740.915 199.154 741.147Z" fill="#26A0DD"/>
<path d="M591.372 737.193C591.837 737.134 592.128 736.786 592.128 736.32L591.372 726.375C591.314 725.91 590.965 725.619 590.5 725.619C590.035 725.677 589.744 726.026 589.744 726.492L590.5 736.437C590.558 736.902 590.907 737.251 591.372 737.193Z" fill="#26A0DD"/>
<path d="M591.779 736.902C592.07 736.553 592.012 736.029 591.721 735.739L584.161 729.225C583.812 728.934 583.288 728.992 582.997 729.283C582.707 729.632 582.765 730.155 583.056 730.446L590.616 736.96C591.023 737.309 591.488 737.251 591.779 736.902Z" fill="#26A0DD"/>
<path d="M591.256 737.076C591.547 737.193 591.896 737.018 592.012 736.727L594.513 729.807C594.629 729.516 594.455 729.167 594.164 729.051C593.873 728.934 593.524 729.109 593.408 729.399L590.907 736.32C590.791 736.669 590.965 736.96 591.256 737.076Z" fill="#26A0DD"/>
<path d="M121.164 738.879C121.629 738.879 121.978 738.53 121.978 738.065L122.036 728.062C122.036 727.596 121.688 727.248 121.222 727.248C120.757 727.248 120.408 727.596 120.408 728.062L120.35 738.065C120.35 738.53 120.699 738.879 121.164 738.879Z" fill="#26A0DD"/>
<path d="M121.629 738.647C121.92 738.356 121.92 737.832 121.629 737.483L114.592 730.388C114.301 730.097 113.778 730.097 113.429 730.388C113.138 730.679 113.138 731.202 113.429 731.551L120.466 738.647C120.815 738.937 121.28 738.937 121.629 738.647Z" fill="#26A0DD"/>
<path d="M121.048 738.763C121.339 738.879 121.688 738.763 121.804 738.472L124.886 731.784C125.003 731.493 124.886 731.144 124.595 731.028C124.305 730.912 123.956 731.028 123.839 731.319L120.757 738.007C120.641 738.298 120.757 738.647 121.048 738.763Z" fill="#26A0DD"/>
</g>
<path d="M1102.99 696.622H1095.42C1095.55 695.052 1097.23 693.823 1099.24 693.823C1101.25 693.823 1102.86 695.052 1102.99 696.622Z" fill="#26A0DD"/>
<path d="M960.7 701.468H967.942L960.7 692.321V701.468Z" fill="#EF9426"/>
<path d="M960.7 691.024V692.321L967.942 701.468H976.793L968.478 691.024H960.7Z" fill="#EFEFEF"/>
<path d="M968.478 691.024L976.793 701.468H985.578L977.263 691.024H968.478Z" fill="#EF9426"/>
<path d="M977.263 691.024L985.578 701.468H994.362L986.047 691.024H977.263Z" fill="#EFEFEF"/>
<path d="M986.047 691.024L994.362 701.468H1003.15L994.832 691.024H986.047Z" fill="#EF9426"/>
<path d="M994.832 691.024L1003.15 701.468H1012L1003.68 691.024H994.832Z" fill="#EFEFEF"/>
<path d="M1003.68 691.024L1012 701.468H1020.78L1012.47 691.024H1003.68Z" fill="#EF9426"/>
<path d="M1012.47 691.024L1020.78 701.468H1029.57L1021.25 691.024H1012.47Z" fill="#EFEFEF"/>
<path d="M1021.25 691.024L1029.57 701.468H1038.35L1030.04 691.024H1021.25Z" fill="#EF9426"/>
<path d="M1030.04 691.024L1038.35 701.468H1047.14L1038.89 691.024H1030.04Z" fill="#EFEFEF"/>
<path d="M1038.89 691.024L1047.14 701.468H1055.99L1047.67 691.024H1038.89Z" fill="#EF9426"/>
<path d="M1047.67 691.024L1055.99 701.468H1064.77L1056.46 691.024H1047.67Z" fill="#EFEFEF"/>
<path d="M1056.46 691.024L1064.77 701.468H1073.56L1065.24 691.024H1056.46Z" fill="#EF9426"/>
<path d="M1065.24 691.024L1073.56 701.468H1082.34L1074.09 691.024H1065.24Z" fill="#EFEFEF"/>
<path d="M1074.09 691.024L1082.34 701.468H1091.19L1082.88 691.024H1074.09Z" fill="#EF9426"/>
<path d="M1082.88 691.024L1091.19 701.468H1099.98L1091.66 691.024H1082.88Z" fill="#EFEFEF"/>
<path d="M1091.66 691.024L1099.98 701.468H1101.85V692.799L1100.45 691.024H1091.66Z" fill="#EF9426"/>
<path d="M1101.85 692.799V691.024H1100.45L1101.85 692.799Z" fill="white"/>
<path d="M962.712 690H958.554V746.112H962.712V690Z" fill="#191C2D"/>
<path d="M960.7 690H958.554V746.112H960.7V690Z" fill="#272A44"/>
<path d="M965.93 746.59H955C955 745.703 955.671 745.02 956.542 745.02H964.388C965.26 745.02 965.93 745.703 965.93 746.59Z" fill="#272A44"/>
<path d="M1103.93 690H1099.78V746.112H1103.93V690Z" fill="#191C2D"/>
<path d="M1101.92 690H1099.78V746.112H1101.92V690Z" fill="#272A44"/>
<path d="M1107.22 746.59H1096.29C1096.29 745.703 1096.96 745.02 1097.83 745.02H1105.68C1106.55 745.02 1107.22 745.703 1107.22 746.59Z" fill="#272A44"/>
<path d="M161.616 701.312H154.263C154.393 699.815 156.02 698.644 157.972 698.644C159.924 698.644 161.486 699.815 161.616 701.312Z" fill="#26A0DD"/>
<path d="M23.5312 705.932H30.5591L23.5312 697.212V705.932Z" fill="#EF9426"/>
<path d="M23.5312 695.976V697.212L30.5591 705.932H39.0837L31.0146 695.976H23.5312Z" fill="#EFEFEF"/>
<path d="M31.0146 695.976L39.0836 705.932H47.6082L39.6042 695.976H31.0146Z" fill="#EF9426"/>
<path d="M39.6042 695.976L47.6082 705.932H56.1979L48.1288 695.976H39.6042Z" fill="#EFEFEF"/>
<path d="M48.1288 695.976L56.1979 705.932H64.7225L56.6534 695.976H48.1288Z" fill="#EF9426"/>
<path d="M56.6534 695.976L64.7225 705.932H73.2471L65.178 695.976H56.6534Z" fill="#EFEFEF"/>
<path d="M65.178 695.976L73.247 705.932H81.7716L73.7676 695.976H65.178Z" fill="#EF9426"/>
<path d="M73.7676 695.976L81.7716 705.932H90.3613L82.2922 695.976H73.7676Z" fill="#EFEFEF"/>
<path d="M82.2922 695.976L90.3612 705.932H98.8858L90.8167 695.976H82.2922Z" fill="#EF9426"/>
<path d="M90.8168 695.976L98.8858 705.932H107.41L99.3413 695.976H90.8168Z" fill="#EFEFEF"/>
<path d="M99.3414 695.976L107.41 705.932H115.935L107.866 695.976H99.3414Z" fill="#EF9426"/>
<path d="M107.866 695.976L115.935 705.932H124.525L116.456 695.976H107.866Z" fill="#EFEFEF"/>
<path d="M116.456 695.976L124.525 705.932H133.049L124.98 695.976H116.456Z" fill="#EF9426"/>
<path d="M124.98 695.976L133.049 705.932H141.574L133.505 695.976H124.98Z" fill="#EFEFEF"/>
<path d="M133.505 695.976L141.574 705.932H150.098L142.029 695.976H133.505Z" fill="#EF9426"/>
<path d="M142.029 695.976L150.098 705.932H158.688L150.619 695.976H142.029Z" fill="#EFEFEF"/>
<path d="M150.619 695.976L158.688 705.932H160.51V697.668L159.143 695.976H150.619Z" fill="#EF9426"/>
<path d="M160.51 697.668V695.976H159.143L160.51 697.668Z" fill="white"/>
<path d="M25.4183 695H21.3838V748.49H25.4183V695Z" fill="#191C2D"/>
<path d="M23.4661 695H21.3838V748.49H23.4661V695Z" fill="#272A44"/>
<path d="M28.6069 748.946H18C18 748.1 18.6507 747.449 19.4967 747.449H27.1102C27.8911 747.449 28.6069 748.1 28.6069 748.946Z" fill="#272A44"/>
<path d="M162.527 695H158.493V748.49H162.527V695Z" fill="#191C2D"/>
<path d="M160.575 695H158.493V748.49H160.575V695Z" fill="#272A44"/>
<path d="M165.716 748.946H155.109C155.109 748.1 155.76 747.449 156.606 747.449H164.219C165 747.449 165.716 748.1 165.716 748.946Z" fill="#272A44"/>
<path d="M1105.11 758H-15.1133C-22.8044 758 -29 754.654 -29 750.5C-29 746.346 -22.8044 743 -15.1133 743H1105.11C1112.8 743 1119 746.346 1119 750.5C1119 754.654 1112.8 758 1105.11 758Z" fill="#26A0DD"/>
</g>
</svg>
