<svg width="39" height="39" viewBox="0 0 39 39" fill="none" xmlns="http://www.w3.org/2000/svg">
<g clip-path="url(#clip0)">
<path d="M12.5357 28.5536V29.9464C12.5357 30.135 12.4668 30.2983 12.329 30.4361C12.1911 30.5739 12.0279 30.6429 11.8393 30.6429H10.4464C10.2578 30.6429 10.0946 30.5739 9.95675 30.4361C9.81892 30.2983 9.75 30.135 9.75 29.9464V28.5536C9.75 28.365 9.81892 28.2017 9.95675 28.0639C10.0946 27.9261 10.2578 27.8571 10.4464 27.8571H11.8393C12.0279 27.8571 12.1911 27.9261 12.329 28.0639C12.4668 28.2017 12.5357 28.365 12.5357 28.5536ZM12.5357 22.9821V24.375C12.5357 24.5636 12.4668 24.7268 12.329 24.8647C12.1911 25.0025 12.0279 25.0714 11.8393 25.0714H10.4464C10.2578 25.0714 10.0946 25.0025 9.95675 24.8647C9.81892 24.7268 9.75 24.5636 9.75 24.375V22.9821C9.75 22.7935 9.81892 22.6303 9.95675 22.4925C10.0946 22.3546 10.2578 22.2857 10.4464 22.2857H11.8393C12.0279 22.2857 12.1911 22.3546 12.329 22.4925C12.4668 22.6303 12.5357 22.7935 12.5357 22.9821ZM18.1071 22.9821V24.375C18.1071 24.5636 18.0382 24.7268 17.9004 24.8647C17.7626 25.0025 17.5993 25.0714 17.4107 25.0714H16.0179C15.8292 25.0714 15.666 25.0025 15.5282 24.8647C15.3903 24.7268 15.3214 24.5636 15.3214 24.375V22.9821C15.3214 22.7935 15.3903 22.6303 15.5282 22.4925C15.666 22.3546 15.8292 22.2857 16.0179 22.2857H17.4107C17.5993 22.2857 17.7626 22.3546 17.9004 22.4925C18.0382 22.6303 18.1071 22.7935 18.1071 22.9821ZM12.5357 17.4107V18.8036C12.5357 18.9922 12.4668 19.1554 12.329 19.2932C12.1911 19.4311 12.0279 19.5 11.8393 19.5H10.4464C10.2578 19.5 10.0946 19.4311 9.95675 19.2932C9.81892 19.1554 9.75 18.9922 9.75 18.8036V17.4107C9.75 17.2221 9.81892 17.0589 9.95675 16.921C10.0946 16.7832 10.2578 16.7143 10.4464 16.7143H11.8393C12.0279 16.7143 12.1911 16.7832 12.329 16.921C12.4668 17.0589 12.5357 17.2221 12.5357 17.4107ZM29.25 28.5536V29.9464C29.25 30.135 29.1811 30.2983 29.0432 30.4361C28.9054 30.5739 28.7422 30.6429 28.5536 30.6429H27.1607C26.9721 30.6429 26.8089 30.5739 26.671 30.4361C26.5332 30.2983 26.4643 30.135 26.4643 29.9464V28.5536C26.4643 28.365 26.5332 28.2017 26.671 28.0639C26.8089 27.9261 26.9721 27.8571 27.1607 27.8571H28.5536C28.7422 27.8571 28.9054 27.9261 29.0432 28.0639C29.1811 28.2017 29.25 28.365 29.25 28.5536ZM23.6786 22.9821V24.375C23.6786 24.5636 23.6097 24.7268 23.4718 24.8647C23.334 25.0025 23.1708 25.0714 22.9821 25.0714H21.5893C21.4007 25.0714 21.2374 25.0025 21.0996 24.8647C20.9618 24.7268 20.8929 24.5636 20.8929 24.375V22.9821C20.8929 22.7935 20.9618 22.6303 21.0996 22.4925C21.2374 22.3546 21.4007 22.2857 21.5893 22.2857H22.9821C23.1708 22.2857 23.334 22.3546 23.4718 22.4925C23.6097 22.6303 23.6786 22.7935 23.6786 22.9821ZM18.1071 17.4107V18.8036C18.1071 18.9922 18.0382 19.1554 17.9004 19.2932C17.7626 19.4311 17.5993 19.5 17.4107 19.5H16.0179C15.8292 19.5 15.666 19.4311 15.5282 19.2932C15.3903 19.1554 15.3214 18.9922 15.3214 18.8036V17.4107C15.3214 17.2221 15.3903 17.0589 15.5282 16.921C15.666 16.7832 15.8292 16.7143 16.0179 16.7143H17.4107C17.5993 16.7143 17.7626 16.7832 17.9004 16.921C18.0382 17.0589 18.1071 17.2221 18.1071 17.4107ZM12.5357 11.8393V13.2321C12.5357 13.4208 12.4668 13.584 12.329 13.7218C12.1911 13.8597 12.0279 13.9286 11.8393 13.9286H10.4464C10.2578 13.9286 10.0946 13.8597 9.95675 13.7218C9.81892 13.584 9.75 13.4208 9.75 13.2321V11.8393C9.75 11.6507 9.81892 11.4874 9.95675 11.3496C10.0946 11.2118 10.2578 11.1429 10.4464 11.1429H11.8393C12.0279 11.1429 12.1911 11.2118 12.329 11.3496C12.4668 11.4874 12.5357 11.6507 12.5357 11.8393ZM29.25 22.9821V24.375C29.25 24.5636 29.1811 24.7268 29.0432 24.8647C28.9054 25.0025 28.7422 25.0714 28.5536 25.0714H27.1607C26.9721 25.0714 26.8089 25.0025 26.671 24.8647C26.5332 24.7268 26.4643 24.5636 26.4643 24.375V22.9821C26.4643 22.7935 26.5332 22.6303 26.671 22.4925C26.8089 22.3546 26.9721 22.2857 27.1607 22.2857H28.5536C28.7422 22.2857 28.9054 22.3546 29.0432 22.4925C29.1811 22.6303 29.25 22.7935 29.25 22.9821ZM23.6786 17.4107V18.8036C23.6786 18.9922 23.6097 19.1554 23.4718 19.2932C23.334 19.4311 23.1708 19.5 22.9821 19.5H21.5893C21.4007 19.5 21.2374 19.4311 21.0996 19.2932C20.9618 19.1554 20.8929 18.9922 20.8929 18.8036V17.4107C20.8929 17.2221 20.9618 17.0589 21.0996 16.921C21.2374 16.7832 21.4007 16.7143 21.5893 16.7143H22.9821C23.1708 16.7143 23.334 16.7832 23.4718 16.921C23.6097 17.0589 23.6786 17.2221 23.6786 17.4107ZM18.1071 11.8393V13.2321C18.1071 13.4208 18.0382 13.584 17.9004 13.7218C17.7626 13.8597 17.5993 13.9286 17.4107 13.9286H16.0179C15.8292 13.9286 15.666 13.8597 15.5282 13.7218C15.3903 13.584 15.3214 13.4208 15.3214 13.2321V11.8393C15.3214 11.6507 15.3903 11.4874 15.5282 11.3496C15.666 11.2118 15.8292 11.1429 16.0179 11.1429H17.4107C17.5993 11.1429 17.7626 11.2118 17.9004 11.3496C18.0382 11.4874 18.1071 11.6507 18.1071 11.8393ZM12.5357 6.26786V7.66071C12.5357 7.84933 12.4668 8.01256 12.329 8.15039C12.1911 8.28823 12.0279 8.35714 11.8393 8.35714H10.4464C10.2578 8.35714 10.0946 8.28823 9.95675 8.15039C9.81892 8.01256 9.75 7.84933 9.75 7.66071V6.26786C9.75 6.07924 9.81892 5.91602 9.95675 5.77818C10.0946 5.64035 10.2578 5.57143 10.4464 5.57143H11.8393C12.0279 5.57143 12.1911 5.64035 12.329 5.77818C12.4668 5.91602 12.5357 6.07924 12.5357 6.26786ZM29.25 17.4107V18.8036C29.25 18.9922 29.1811 19.1554 29.0432 19.2932C28.9054 19.4311 28.7422 19.5 28.5536 19.5H27.1607C26.9721 19.5 26.8089 19.4311 26.671 19.2932C26.5332 19.1554 26.4643 18.9922 26.4643 18.8036V17.4107C26.4643 17.2221 26.5332 17.0589 26.671 16.921C26.8089 16.7832 26.9721 16.7143 27.1607 16.7143H28.5536C28.7422 16.7143 28.9054 16.7832 29.0432 16.921C29.1811 17.0589 29.25 17.2221 29.25 17.4107ZM23.6786 11.8393V13.2321C23.6786 13.4208 23.6097 13.584 23.4718 13.7218C23.334 13.8597 23.1708 13.9286 22.9821 13.9286H21.5893C21.4007 13.9286 21.2374 13.8597 21.0996 13.7218C20.9618 13.584 20.8929 13.4208 20.8929 13.2321V11.8393C20.8929 11.6507 20.9618 11.4874 21.0996 11.3496C21.2374 11.2118 21.4007 11.1429 21.5893 11.1429H22.9821C23.1708 11.1429 23.334 11.2118 23.4718 11.3496C23.6097 11.4874 23.6786 11.6507 23.6786 11.8393ZM18.1071 6.26786V7.66071C18.1071 7.84933 18.0382 8.01256 17.9004 8.15039C17.7626 8.28823 17.5993 8.35714 17.4107 8.35714H16.0179C15.8292 8.35714 15.666 8.28823 15.5282 8.15039C15.3903 8.01256 15.3214 7.84933 15.3214 7.66071V6.26786C15.3214 6.07924 15.3903 5.91602 15.5282 5.77818C15.666 5.64035 15.8292 5.57143 16.0179 5.57143H17.4107C17.5993 5.57143 17.7626 5.64035 17.9004 5.77818C18.0382 5.91602 18.1071 6.07924 18.1071 6.26786ZM29.25 11.8393V13.2321C29.25 13.4208 29.1811 13.584 29.0432 13.7218C28.9054 13.8597 28.7422 13.9286 28.5536 13.9286H27.1607C26.9721 13.9286 26.8089 13.8597 26.671 13.7218C26.5332 13.584 26.4643 13.4208 26.4643 13.2321V11.8393C26.4643 11.6507 26.5332 11.4874 26.671 11.3496C26.8089 11.2118 26.9721 11.1429 27.1607 11.1429H28.5536C28.7422 11.1429 28.9054 11.2118 29.0432 11.3496C29.1811 11.4874 29.25 11.6507 29.25 11.8393ZM23.6786 6.26786V7.66071C23.6786 7.84933 23.6097 8.01256 23.4718 8.15039C23.334 8.28823 23.1708 8.35714 22.9821 8.35714H21.5893C21.4007 8.35714 21.2374 8.28823 21.0996 8.15039C20.9618 8.01256 20.8929 7.84933 20.8929 7.66071V6.26786C20.8929 6.07924 20.9618 5.91602 21.0996 5.77818C21.2374 5.64035 21.4007 5.57143 21.5893 5.57143H22.9821C23.1708 5.57143 23.334 5.64035 23.4718 5.77818C23.6097 5.91602 23.6786 6.07924 23.6786 6.26786ZM29.25 6.26786V7.66071C29.25 7.84933 29.1811 8.01256 29.0432 8.15039C28.9054 8.28823 28.7422 8.35714 28.5536 8.35714H27.1607C26.9721 8.35714 26.8089 8.28823 26.671 8.15039C26.5332 8.01256 26.4643 7.84933 26.4643 7.66071V6.26786C26.4643 6.07924 26.5332 5.91602 26.671 5.77818C26.8089 5.64035 26.9721 5.57143 27.1607 5.57143H28.5536C28.7422 5.57143 28.9054 5.64035 29.0432 5.77818C29.1811 5.91602 29.25 6.07924 29.25 6.26786ZM23.6786 36.2143H32.0357V2.78571H6.96429V36.2143H15.3214V31.3393C15.3214 31.1507 15.3903 30.9874 15.5282 30.8496C15.666 30.7118 15.8292 30.6429 16.0179 30.6429H22.9821C23.1708 30.6429 23.334 30.7118 23.4718 30.8496C23.6097 30.9874 23.6786 31.1507 23.6786 31.3393V36.2143ZM34.8214 1.39286V37.6071C34.8214 37.9844 34.6836 38.3108 34.4079 38.5865C34.1323 38.8622 33.8058 39 33.4286 39H5.57143C5.1942 39 4.86775 38.8622 4.59208 38.5865C4.31641 38.3108 4.17857 37.9844 4.17857 37.6071V1.39286C4.17857 1.01563 4.31641 0.689174 4.59208 0.413504C4.86775 0.137835 5.1942 0 5.57143 0H33.4286C33.8058 0 34.1323 0.137835 34.4079 0.413504C34.6836 0.689174 34.8214 1.01563 34.8214 1.39286Z" fill="#26A0DD" fill-opacity="0.7"/>
</g>
<defs>
<clipPath id="clip0">
<rect width="39" height="39" fill="white"/>
</clipPath>
</defs>
</svg>
