<svg width="22" height="22" viewBox="0 0 22 22" fill="none" xmlns="http://www.w3.org/2000/svg">
<g clip-path="url(#clip0)">
<path d="M10.3125 20.625H1.375V1.375H10.3125C10.692 1.375 11 1.067 11 0.6875C11 0.308 10.692 0 10.3125 0H0.6875C0.308 0 0 0.308 0 0.6875V21.3125C0 21.692 0.308 22 0.6875 22H10.3125C10.692 22 11 21.692 11 21.3125C11 20.933 10.692 20.625 10.3125 20.625Z" fill="#26A0DD"/>
<path d="M21.8006 10.5201L17.0569 5.70833C16.7881 5.43676 16.3529 5.43745 16.0848 5.70833C15.8159 5.9792 15.8159 6.4192 16.0848 6.69008L19.6598 10.3166H5.50208C5.12258 10.3166 4.81458 10.6274 4.81458 11.011C4.81458 11.3946 5.12258 11.7054 5.50208 11.7054H19.6598L16.0848 15.332C15.8159 15.6035 15.8159 16.0428 16.0848 16.3137C16.3536 16.5853 16.7888 16.5853 17.0569 16.3137L21.7999 11.5019C22.0653 11.2345 22.0681 10.7869 21.8006 10.5201V10.5201Z" fill="#26A0DD"/>
</g>
<defs>
<clipPath id="clip0">
<rect width="22" height="22" fill="white"/>
</clipPath>
</defs>
</svg>
